
        <svg xmlns="http://www.w3.org/2000/svg" xmlns:xlink="http://www.w3.org/1999/xlink" version="1.1" width="3328.1757829449252" height="3328.205128205128" viewBox="0 0 3328.1757829449252 3328.205128205128">
			
			<g transform="scale(16.41025641025641) translate(10, 10)">
				<defs id="SvgjsDefs1244"><linearGradient id="SvgjsLinearGradient1253"><stop id="SvgjsStop1254" stop-color="#945f50" offset="0"/><stop id="SvgjsStop1255" stop-color="#fcc5b3" offset="0.5"/><stop id="SvgjsStop1256" stop-color="#945f50" offset="1"/></linearGradient><linearGradient id="SvgjsLinearGradient1257"><stop id="SvgjsStop1258" stop-color="#945f50" offset="0"/><stop id="SvgjsStop1259" stop-color="#fcc5b3" offset="0.5"/><stop id="SvgjsStop1260" stop-color="#945f50" offset="1"/></linearGradient><linearGradient id="SvgjsLinearGradient1261"><stop id="SvgjsStop1262" stop-color="#945f50" offset="0"/><stop id="SvgjsStop1263" stop-color="#fcc5b3" offset="0.5"/><stop id="SvgjsStop1264" stop-color="#945f50" offset="1"/></linearGradient><linearGradient id="SvgjsLinearGradient1265"><stop id="SvgjsStop1266" stop-color="#945f50" offset="0"/><stop id="SvgjsStop1267" stop-color="#fcc5b3" offset="0.5"/><stop id="SvgjsStop1268" stop-color="#945f50" offset="1"/></linearGradient></defs><g id="SvgjsG1245" featureKey="rootContainer" transform="matrix(0.8946048179093002,0,0,0.8946048179093002,0,0)" fill="#fff"><path xmlns="http://www.w3.org/2000/svg" d="M102.174 199.588c53.8 0 97.413-43.613 97.413-97.413S155.974 4.762 102.174 4.762 4.761 48.375 4.761 102.175s43.614 97.413 97.413 97.413zm0-189.826c50.957 0 92.413 41.457 92.413 92.413s-41.456 92.413-92.413 92.413c-50.957 0-92.413-41.457-92.413-92.413S51.218 9.762 102.174 9.762z"/><path xmlns="http://www.w3.org/2000/svg" d="M102.174 191.585c49.38 0 89.41-40.03 89.41-89.41s-40.03-89.41-89.41-89.41c-49.38 0-89.41 40.03-89.41 89.41s40.03 89.41 89.41 89.41zm0-176.82c48.198 0 87.41 39.212 87.41 87.41s-39.212 87.41-87.41 87.41c-48.198 0-87.41-39.212-87.41-87.41s39.212-87.41 87.41-87.41z"/><path xmlns="http://www.w3.org/2000/svg" d="M102.174 204.35c56.339 0 102.174-45.835 102.174-102.175S158.513 0 102.174 0C45.835 0 0 45.835 0 102.175S45.835 204.35 102.174 204.35zm0-202.35c55.236 0 100.174 44.938 100.174 100.175S157.411 202.35 102.174 202.35C46.938 202.35 2 157.411 2 102.175S46.938 2 102.174 2z"/></g><g id="SvgjsG1246" featureKey="symbolFeature-0" transform="matrix(0.2724358796707623,0,0,0.2724358796707623,50.63461804938565,10.05288368271502)" fill="#fff"><path xmlns="http://www.w3.org/2000/svg" d="M87.4,143.9c16.6,13,37.8,19.6,63.2,19.6c23.6,0,44.2-7,61.2-20.9c13.9-11.4,21.9-24.3,24.3-39.2  c-2.8-5.4-6.3-10.6-10.6-15.5c-3.5,10.2-10.2,19.4-20.2,27.5c-15.4,12.5-34.2,18.7-56.2,18.7c-22,0-40.5-6.1-55.2-18.3  c-9.4-7.7-15.7-16.6-19.2-26.7c-4.4,5.1-8,10.5-10.8,16.1C66,120.5,73.7,133.2,87.4,143.9z"/><path xmlns="http://www.w3.org/2000/svg" d="M220.4,153.2c-19.5,15.9-42.9,23.9-69.8,23.9c-28.5,0-52.6-7.6-71.6-22.6c-9.7-7.6-17.1-16.3-22-26  c-0.4,3.1-0.6,6.3-0.6,9.6c0,21.1,8.9,38.7,26.8,52.7c17.9,14.1,40.4,21.1,67.4,21.1c25.3,0,47.1-7.5,65.5-22.4  c18.3-14.9,27.5-33,27.5-54.1c0-3.3-0.3-6.4-0.7-9.5C238,136,230.4,145.1,220.4,153.2z"/></g><g id="SvgjsG1247" featureKey="nameFeature-0" transform="matrix(1.5970958686196661,0,0,1.5970958686196661,36.41962264770998,65.27949710063812)" fill="#fff"><path d="M6.76 13.8 l3.48 6.72 l3.4 -6.72 c0.12 -0.2 0.16 -0.2 0.32 -0.2 l4.48 0 c0.24 0 0.4 0.24 0.32 0.44 l-5.8 13.48 l0 12.12 c0 0.2 -0.16 0.36 -0.36 0.36 l-4.72 0 c-0.12 0 -0.28 -0.16 -0.28 -0.36 l0 -12.12 l-5.96 -13.4 c-0.08 -0.28 0.04 -0.52 0.32 -0.52 l4.48 0 c0.16 0 0.2 0 0.32 0.2 z M10.44 26.6 l5 -10.4 c0.12 -0.24 -0.28 -0.44 -0.44 -0.16 l-4.76 9.96 l-4.88 -9.96 c-0.16 -0.28 -0.6 -0.08 -0.48 0.2 l5.12 10.36 l0 11.04 c0 0.28 0.44 0.32 0.44 0 l0 -11.04 z M46.28 13.600000000000001 c0.2 0 0.36 0.16 0.36 0.36 l0 25.68 c0 0.2 -0.16 0.36 -0.36 0.36 l-4.36 0 c-0.12 0 -0.32 -0.16 -0.32 -0.36 l0 -14.8 l-4.4 14.92 c-0.08 0.16 -0.16 0.24 -0.32 0.24 l-3.16 0 c-0.12 0 -0.28 -0.08 -0.32 -0.24 l-4.12 -15.2 l0 15.08 c0 0.2 -0.16 0.36 -0.36 0.36 l-4.44 0 c-0.16 0 -0.28 -0.16 -0.28 -0.36 l0 -25.68 c0 -0.2 0.12 -0.36 0.28 -0.36 l5.6 0 c0.16 0 0.32 0.12 0.36 0.24 l4.84 16.2 l5.32 -16.2 c0 -0.12 0.12 -0.24 0.28 -0.24 l5.4 0 z M43.8 37.56 c0 0.28 0.52 0.36 0.52 0 l0 -21.56 c0 -0.08 -0.12 -0.2 -0.24 -0.2 l-1.88 0 c-0.16 0 -0.2 0.12 -0.28 0.2 l-6.64 19.8 l-6.6 -19.84 c0 -0.12 -0.08 -0.16 -0.2 -0.16 l-1.96 0 c-0.12 0 -0.24 0.12 -0.24 0.24 l0 21.52 c0 0.28 0.52 0.36 0.52 0 l0 -21.24 l1.48 0 l6.76 20.32 c0.16 0.28 0.28 0.2 0.48 0 l6.8 -20.32 l1.48 0 l0 21.24 z M62.400000000000006 13.600000000000001 l4.6 0 c0.2 0 0.36 0.16 0.36 0.36 l0 19.16 c0 3.88 -3.12 7.24 -7.2 7.24 l-1 0 c-1.68 0 -3.32 -0.64 -4.76 -1.8 c-1.2 -1.12 -2.36 -2.6 -3.12 -4.24 c-0.08 -0.2 -0.04 -0.36 0.12 -0.48 l4.2 -2.92 c0.16 -0.12 0.4 -0.12 0.48 0.12 c0.56 1.6 1.52 3.96 3.6 3.96 c2 0 2.36 -2.76 2.36 -4.44 l0 -16.6 c0 -0.2 0.16 -0.36 0.36 -0.36 z M54.96000000000001 34.4 c-0.16 -0.24 -0.6 0 -0.4 0.32 c1 1.68 2.12 3.2 5.04 3.2 c3.36 0 5.36 -2.6 5.36 -6.92 l0 -15 c0 -0.24 -0.52 -0.28 -0.52 0 l0 15 c0 1.96 -0.4 3.6 -1.24 4.72 c-0.84 1.08 -2.04 1.68 -3.6 1.68 c-2.64 0 -3.64 -1.36 -4.64 -3 z"/></g><g id="SvgjsG1248" featureKey="sloganFeature-0" transform="matrix(0.6044469976408553,0,0,0.6044469976408553,49.87911059867044,134.70310129367564)" fill="#fff"><path d="M0.2 4 l2 0 l1.2 6.16 l0.2 0 l1.2 -6.16 l2 0 l-2.3 9.04 l0 6.96 l-2 0 l0 -6.96 z M8.55 11.58 c0 -5.58 0.12 -7.78 3.12 -7.78 s3.12 2.2 3.12 7.78 c0 6.4 -0.12 8.62 -3.12 8.62 s-3.12 -2.22 -3.12 -8.62 z M10.55 11.58 c0 5.78 0 6.62 1.12 6.62 s1.12 -0.84 1.12 -6.62 c0 -5.2 0 -6.18 -1.12 -6.18 s-1.12 0.98 -1.12 6.18 z M17.24 11.58 l0 -7.58 l2 0 l0 7.58 c0 5.78 0 6.62 1 6.62 s1 -0.84 1 -6.62 l0 -7.58 l2 0 l0 7.58 c0 6.4 0 8.62 -3 8.62 s-3 -2.22 -3 -8.62 z M31.04 20 l0 -16 l1.8 0 l2.1 10 l0.2 0 l2.1 -10 l1.8 0 l0 16 l-2 0 l0 -8 l-1.42 8 l-1.2 0 l-1.38 -8 l0 8 l-2 0 z M41.79 20 l0 -8.4 c0 -5.58 0 -7.78 3 -7.78 s3 2.2 3 7.78 l0 8.4 l-2 0 l0 -4.6 l-2 0 l0 4.6 l-2 0 z M43.79 13.8 l2 0 l0 -2.2 c0 -5.2 0 -6.18 -1 -6.18 s-1 0.98 -1 6.18 l0 2.2 z M49.74 5.800000000000001 l0 -1.8 l6 0 l0 1.8 l-2 0 l0 14.2 l-2 0 l0 -14.2 l-2 0 z M56.89 5.800000000000001 l0 -1.8 l6 0 l0 1.8 l-2 0 l0 14.2 l-2 0 l0 -14.2 l-2 0 z M64.84 20 l0 -16 l4.6 0 l0 1.6 l-2.6 0 l0 5.2 l2.2 0 l0 1.6 l-2.2 0 l0 5.6 l2.6 0 l0 2 l-4.6 0 z M71.59 20 l0 -16 l3.24 0 c2.06 0 2.76 1.26 2.76 3.68 c0 2.18 -0.26 3.42 -0.88 4.02 l0 0.12 c0.52 0.18 0.68 1.12 0.88 3.46 l0.4 4.72 l-2 0 l-0.26 -4.72 c-0.14 -2.38 -0.5 -2.88 -1.1 -2.88 l-1.04 0 l0 7.6 l-2 0 z M73.59 10.8 l1.24 0 c0.7 0 0.9 -0.7 0.9 -3.12 c0 -1.58 -0.3 -2.08 -0.9 -2.08 l-1.24 0 l0 5.2 z M84.49000000000001 16.8 l1.96 0 c0.1 1.1 0.34 1.4 0.72 1.4 c0.8 0 0.8 -0.84 0.8 -6.62 l0 -5.98 l-1.52 0 l0 -1.6 l3.52 0 l0 7.58 c0 6.4 0 8.62 -2.8 8.62 c-1.76 0 -2.44 -0.96 -2.68 -3.4 z M92.72000000000001 20 l0 -16 l4.6 0 l0 1.6 l-2.6 0 l0 5.2 l2.2 0 l0 1.6 l-2.2 0 l0 5.6 l2.6 0 l0 2 l-4.6 0 z M99.07000000000001 4 l2.1 0 l0.6 12.04 l0.2 0 l1.2 -12.04 l1.7 0 l1.2 12.04 l0.2 0 l0.6 -12.04 l2.1 0 l-1.4 16 l-2.4 0 l-1.14 -8.36 l-1.16 8.36 l-2.4 0 z M111.32000000000001 20 l0 -16 l4.6 0 l0 1.6 l-2.6 0 l0 5.2 l2.2 0 l0 1.6 l-2.2 0 l0 5.6 l2.6 0 l0 2 l-4.6 0 z M118.07000000000001 20 l0 -16 l2 0 l0 14 l2.6 0 l0 2 l-4.6 0 z M124.62 20 l0 -16 l3.24 0 c2.06 0 2.76 1.26 2.76 3.68 c0 2.18 -0.26 3.42 -0.88 4.02 l0 0.12 c0.52 0.18 0.68 1.12 0.88 3.46 l0.4 4.72 l-2 0 l-0.26 -4.72 c-0.14 -2.38 -0.5 -2.88 -1.1 -2.88 l-1.04 0 l0 7.6 l-2 0 z M126.62 10.8 l1.24 0 c0.7 0 0.9 -0.7 0.9 -3.12 c0 -1.58 -0.3 -2.08 -0.9 -2.08 l-1.24 0 l0 5.2 z M132.57 4 l2 0 l1.2 6.16 l0.2 0 l1.2 -6.16 l2 0 l-2.3 9.04 l0 6.96 l-2 0 l0 -6.96 z"/></g>
			</g>
		</svg>
	